# xmcd
#
# Track frame offsets: 
#        150
#        13180
#        27342
#        41113
#        57976
#        71677
#        89369
#        102268
#        120472
#        137131
#        156370
#        168228
#
# Disc length: 2436 seconds
#
# Revision: 0
# Processed by: cddbd v1.5.1PL0 Copyright (c) Steve Scherf et al.
# Submitted via: ExactAudioCopy v0.95b1
#
DISCID=a309820c
DTITLE=Laurelyn Carter - In This Life
DYEAR=2004
DGENRE=Country
TTITLE0=I Want To Kiss You
TTITLE1=Un-Love Him
TTITLE2=Bone Dry Well
TTITLE3=Little Hands
TTITLE4=In My Room
TTITLE5=Erase All My Memories
TTITLE6=I Don't Love You Like You Do
TTITLE7=The Man Who Made My Momma Cry
TTITLE8=Homecoming Queen
TTITLE9=In This Life
TTITLE10=This Love
TTITLE11=Sad Movies
EXTD=
EXTT0=
EXTT1=
EXTT2=
EXTT3=
EXTT4=
EXTT5=
EXTT6=
EXTT7=
EXTT8=
EXTT9=
EXTT10=
EXTT11=
PLAYORDER=
